<?xml version="1.0" encoding="UTF-8" standalone="no"?>
<!-- Created with Inkscape (http://www.inkscape.org/) -->

<svg
   xmlns:dc="http://purl.org/dc/elements/1.1/"
   xmlns:cc="http://creativecommons.org/ns#"
   xmlns:rdf="http://www.w3.org/1999/02/22-rdf-syntax-ns#"
   xmlns:svg="http://www.w3.org/2000/svg"
   xmlns="http://www.w3.org/2000/svg"
   xmlns:sodipodi="http://sodipodi.sourceforge.net/DTD/sodipodi-0.dtd"
   xmlns:inkscape="http://www.inkscape.org/namespaces/inkscape"
   width="26"
   height="26"
   id="svg2"
   version="1.1"
   inkscape:version="0.91 r13725"
   sodipodi:docname="calculate_mean_vector.svg">
  <defs
     id="defs4" />
  <sodipodi:namedview
     id="base"
     pagecolor="#ffffff"
     bordercolor="#666666"
     borderopacity="1.0"
     inkscape:pageopacity="0.0"
     inkscape:pageshadow="2"
     inkscape:zoom="22.4"
     inkscape:cx="-4.227818"
     inkscape:cy="12.978014"
     inkscape:document-units="px"
     inkscape:current-layer="layer1"
     showgrid="true"
     inkscape:window-width="1920"
     inkscape:window-height="1134"
     inkscape:window-x="0"
     inkscape:window-y="27"
     inkscape:window-maximized="1"
     showguides="true"
     inkscape:guide-bbox="true"
     inkscape:snap-bbox="true"
     inkscape:snap-bbox-midpoints="true">
    <inkscape:grid
       type="xygrid"
       id="grid2985"
       empspacing="5"
       visible="true"
       enabled="true"
       snapvisiblegridlinesonly="true"
       spacingx="0.5px"
       spacingy="0.5px" />
  </sodipodi:namedview>
  <metadata
     id="metadata7">
    <rdf:RDF>
      <cc:Work
         rdf:about="">
        <dc:format>image/svg+xml</dc:format>
        <dc:type
           rdf:resource="http://purl.org/dc/dcmitype/StillImage" />
        <dc:title />
      </cc:Work>
    </rdf:RDF>
  </metadata>
  <g
     inkscape:label="Ebene 1"
     inkscape:groupmode="layer"
     id="layer1"
     transform="translate(0,-1026.3622)">
    <rect
       style="fill:#ffffff;fill-opacity:1;stroke:none"
       id="rect2988"
       width="24"
       height="24"
       x="1"
       y="1"
       transform="translate(0,1026.3622)" />
    <path
       transform="matrix(1.6709039,0.67672985,-0.67672985,1.6709039,13.621334,1017.6651)"
       sodipodi:type="arc"
       style="fill:#000000;fill-opacity:1;stroke:none"
       id="path2986-4"
       sodipodi:cx="8.25"
       sodipodi:cy="7.25"
       sodipodi:rx="1.25"
       sodipodi:ry="1.25"
       d="M 9.5,7.25 A 1.25,1.25 0 0 1 8.25,8.5 1.25,1.25 0 0 1 7,7.25 1.25,1.25 0 0 1 8.25,6 1.25,1.25 0 0 1 9.5,7.25 Z" />
    <circle
       transform="matrix(0.92686739,0.37538893,-0.37538893,0.92686739,0,0)"
       style="fill:#000000;fill-opacity:1;stroke:none"
       id="path2986-4-1"
       cx="408.91333"
       cy="961.69171"
       r="2.2534289" />
    <path
       transform="matrix(1.6709039,0.67672985,-0.67672985,1.6709039,-2.3786658,1026.6651)"
       sodipodi:type="arc"
       style="fill:#000000;fill-opacity:1;stroke:none"
       id="path2986-4-7"
       sodipodi:cx="8.25"
       sodipodi:cy="7.25"
       sodipodi:rx="1.25"
       sodipodi:ry="1.25"
       d="M 9.5,7.25 A 1.25,1.25 0 0 1 8.25,8.5 1.25,1.25 0 0 1 7,7.25 1.25,1.25 0 0 1 8.25,6 1.25,1.25 0 0 1 9.5,7.25 Z" />
    <circle
       r="2.2534289"
       cy="953.30823"
       cx="393.65002"
       transform="matrix(0.92686739,0.37538893,-0.37538893,0.92686739,0,0)"
       style="fill:#000000;fill-opacity:1;stroke:none"
       id="path2986-4-7-7" />
    <circle
       r="2.2534289"
       cy="949.74207"
       cx="402.45526"
       transform="matrix(0.92686739,0.37538893,-0.37538893,0.92686739,0,0)"
       style="fill:#000000;fill-opacity:1;stroke:none"
       id="path2986-4-7-5" />
    <circle
       r="2.2534289"
       cy="967.28772"
       cx="403.08795"
       transform="matrix(0.92686739,0.37538893,-0.37538893,0.92686739,0,0)"
       style="fill:#000000;fill-opacity:1;stroke:none"
       id="path2986-4-7-2" />
    <circle
       r="2.2534289"
       cy="958.96912"
       cx="394.32434"
       transform="matrix(0.92686739,0.37538893,-0.37538893,0.92686739,0,0)"
       style="fill:#000000;fill-opacity:1;stroke:none"
       id="path2986-4-7-54" />
    <circle
       r="2.2534289"
       cy="957.54401"
       cx="401.83896"
       transform="matrix(0.92686739,0.37538893,-0.37538893,0.92686739,0,0)"
       style="fill:#0030ff;fill-opacity:1;stroke:none;stroke-opacity:1"
       id="path2986-4-7-4" />
  </g>
</svg>
